<svg width="20" height="20" viewBox="0 0 20 20" fill="none" xmlns="http://www.w3.org/2000/svg">
<path d="M16.382 8.08428L10.5487 2.98011C10.2345 2.7052 9.76535 2.7052 9.45117 2.98011L3.61783 8.08428C3.43699 8.24252 3.33325 8.47112 3.33325 8.71143V15.8333C3.33325 16.2935 3.70635 16.6666 4.16659 16.6666H7.49992C7.96016 16.6666 8.33325 16.2935 8.33325 15.8333V12.5C8.33325 12.0397 8.70635 11.6666 9.16659 11.6666H10.8333C11.2935 11.6666 11.6666 12.0397 11.6666 12.5V15.8333C11.6666 16.2935 12.0397 16.6666 12.4999 16.6666H15.8333C16.2935 16.6666 16.6666 16.2935 16.6666 15.8333V8.71143C16.6666 8.47112 16.5629 8.24252 16.382 8.08428Z" stroke="#3D3D3D" stroke-opacity="0.8" stroke-width="2" stroke-linecap="round" stroke-linejoin="round"/>
</svg>
