<svg width="72" height="72" viewBox="0 0 72 72" fill="none" xmlns="http://www.w3.org/2000/svg">
<g clip-path="url(#clip0_4_521)">
<path d="M58.5 67.5H24.75C23.5569 67.4986 22.4132 67.0241 21.5695 66.1805C20.7259 65.3369 20.2514 64.1931 20.25 63V49.5H24.75V63H58.5V13.5H38.25V9H58.5C59.6931 9.00137 60.8369 9.47592 61.6805 10.3195C62.5241 11.1631 62.9986 12.3069 63 13.5V63C62.9986 64.1931 62.5241 65.3369 61.6805 66.1805C60.8369 67.0241 59.6931 67.4986 58.5 67.5Z" fill="#FFEA00"/>
<path d="M54 22.5H38.25V27H54V22.5Z" fill="#FFEA00"/>
<path d="M54 33.75H36V38.25H54V33.75Z" fill="#FFEA00"/>
<path d="M54 45H33.75V49.5H54V45Z" fill="#FFEA00"/>
<path d="M20.25 42.75C17.2673 42.7467 14.4077 41.5604 12.2987 39.4513C10.1896 37.3423 9.00328 34.4827 9 31.5V6.75H13.5V31.5C13.5 33.2902 14.2112 35.0071 15.477 36.273C16.7429 37.5388 18.4598 38.25 20.25 38.25C22.0402 38.25 23.7571 37.5388 25.023 36.273C26.2888 35.0071 27 33.2902 27 31.5V11.25C27 10.6533 26.7629 10.081 26.341 9.65901C25.919 9.23705 25.3467 9 24.75 9C24.1533 9 23.581 9.23705 23.159 9.65901C22.7371 10.081 22.5 10.6533 22.5 11.25V33.75H18V11.25C18 9.45979 18.7112 7.7429 19.977 6.47703C21.2429 5.21116 22.9598 4.5 24.75 4.5C26.5402 4.5 28.2571 5.21116 29.523 6.47703C30.7888 7.7429 31.5 9.45979 31.5 11.25V31.5C31.4967 34.4827 30.3104 37.3423 28.2013 39.4513C26.0923 41.5604 23.2327 42.7467 20.25 42.75V42.75Z" fill="#FFEA00"/>
</g>
<defs>
<clipPath id="clip0_4_521">
<rect width="72" height="72" fill="white"/>
</clipPath>
</defs>
</svg>
