<svg width="27" height="27" viewBox="0 0 27 27" fill="none" xmlns="http://www.w3.org/2000/svg">
<g clip-path="url(#clip0_4_266)" filter="url(#filter0_i_4_266)">
<path d="M0 27L1.93547 19.8035C0.374561 17.0001 -0.121354 13.7287 0.538723 10.5897C1.1988 7.45074 2.97059 4.65467 5.52897 2.71461C8.08735 0.77454 11.2607 -0.179387 14.4667 0.0278703C17.6728 0.235127 20.6964 1.58967 22.9828 3.84293C25.2692 6.09619 26.665 9.09703 26.914 12.2948C27.1631 15.4925 26.2487 18.6727 24.3387 21.2518C22.4287 23.8308 19.6512 25.6357 16.5158 26.3352C13.3804 27.0348 10.0975 26.582 7.26943 25.0601L0 27ZM7.61995 22.3671L8.06953 22.6334C10.1179 23.8455 12.5104 24.3471 14.8742 24.06C17.238 23.7729 19.4402 22.7133 21.1377 21.0462C22.8353 19.3791 23.9327 17.1982 24.2591 14.8434C24.5855 12.4886 24.1225 10.0921 22.9422 8.02747C21.7619 5.96281 19.9306 4.34594 17.7338 3.42882C15.5369 2.5117 13.0979 2.34584 10.7967 2.9571C8.49561 3.56836 6.46165 4.92239 5.01183 6.8082C3.562 8.694 2.77775 11.0056 2.78128 13.3829C2.77936 15.354 3.32539 17.287 4.35861 18.9667L4.64055 19.4307L3.55852 23.4474L7.61995 22.3671Z" fill="white"/>
<path fill-rule="evenodd" clip-rule="evenodd" d="M18.5316 15.2308C18.268 15.0186 17.9594 14.8692 17.6293 14.7941C17.2992 14.7189 16.9562 14.72 16.6266 14.7972C16.1313 15.0026 15.8112 15.7785 15.4912 16.1665C15.4237 16.2595 15.3245 16.3247 15.2123 16.3499C15.1001 16.3751 14.9825 16.3586 14.8816 16.3034C13.0683 15.5944 11.5484 14.2941 10.5687 12.6139C10.4851 12.509 10.4456 12.3759 10.4584 12.2425C10.4712 12.1091 10.5353 11.9859 10.6373 11.8988C10.9942 11.546 11.2563 11.1091 11.3993 10.6284C11.431 10.0981 11.3093 9.56999 11.0488 9.10689C10.8473 8.45765 10.4639 7.87955 9.94387 7.44089C9.67565 7.32046 9.37825 7.28007 9.08755 7.32462C8.79685 7.36916 8.52527 7.49673 8.30558 7.69193C7.92418 8.02045 7.62144 8.43019 7.41967 8.89099C7.21791 9.35179 7.12224 9.8519 7.13972 10.3545C7.1409 10.6367 7.17673 10.9178 7.2464 11.1913C7.42334 11.8485 7.69545 12.4764 8.05412 13.0551C8.31289 13.4984 8.59523 13.9276 8.89993 14.3407C9.89018 15.6979 11.1349 16.8501 12.5651 17.7336C13.2828 18.1825 14.0499 18.5476 14.8511 18.8214C15.6835 19.1981 16.6024 19.3427 17.5105 19.2399C18.0278 19.1617 18.518 18.9577 18.9379 18.646C19.3578 18.3343 19.6945 17.9243 19.9184 17.4521C20.0499 17.1669 20.0899 16.848 20.0327 16.5392C19.8955 15.9078 19.0497 15.5351 18.5316 15.2308Z" fill="white"/>
</g>
<defs>
<filter id="filter0_i_4_266" x="0" y="0" width="27" height="27.5" filterUnits="userSpaceOnUse" color-interpolation-filters="sRGB">
<feFlood flood-opacity="0" result="BackgroundImageFix"/>
<feBlend mode="normal" in="SourceGraphic" in2="BackgroundImageFix" result="shape"/>
<feColorMatrix in="SourceAlpha" type="matrix" values="0 0 0 0 0 0 0 0 0 0 0 0 0 0 0 0 0 0 127 0" result="hardAlpha"/>
<feOffset dy="0.5"/>
<feGaussianBlur stdDeviation="1.25"/>
<feComposite in2="hardAlpha" operator="arithmetic" k2="-1" k3="1"/>
<feColorMatrix type="matrix" values="0 0 0 0 0 0 0 0 0 0 0 0 0 0 0 0 0 0 0.1 0"/>
<feBlend mode="normal" in2="shape" result="effect1_innerShadow_4_266"/>
</filter>
<clipPath id="clip0_4_266">
<rect width="27" height="27" fill="white"/>
</clipPath>
</defs>
</svg>
