<svg width="30" height="30" viewBox="0 0 30 30" fill="none" xmlns="http://www.w3.org/2000/svg">
<path d="M0 15C0 6.71573 6.71573 0 15 0V0C23.2843 0 30 6.71573 30 15V15C30 23.2843 23.2843 30 15 30V30C6.71573 30 0 23.2843 0 15V15Z" fill="#444856"/>
<g clip-path="url(#clip0_4_142)" filter="url(#filter0_i_4_142)">
<path d="M7.66103 14.3416C7.66103 14.3416 14.0535 11.5066 16.2706 10.5084C17.1205 10.1091 20.0026 8.83129 20.0026 8.83129C20.0026 8.83129 21.3329 8.2723 21.222 9.6299C21.185 10.1889 20.8894 12.1455 20.5938 14.2618C20.1504 17.2566 19.67 20.5308 19.67 20.5308C19.67 20.5308 19.5961 21.4492 18.968 21.6089C18.3398 21.7686 17.3052 21.0499 17.1205 20.8902C16.9726 20.7704 14.3491 18.9735 13.3884 18.0951C13.1297 17.8555 12.8342 17.3764 13.4253 16.8173C14.7556 15.4996 16.3445 13.8625 17.3052 12.8243C17.7486 12.3451 18.192 11.2271 16.3445 12.5847C13.721 14.5413 11.1344 16.3781 11.1344 16.3781C11.1344 16.3781 10.5432 16.7774 9.43467 16.418C8.32611 16.0587 7.03283 15.5795 7.03283 15.5795C7.03283 15.5795 6.14606 14.9805 7.66103 14.3416Z" fill="white"/>
</g>
<defs>
<filter id="filter0_i_4_142" x="5.69092" y="6.91064" width="16.2603" height="16.7603" filterUnits="userSpaceOnUse" color-interpolation-filters="sRGB">
<feFlood flood-opacity="0" result="BackgroundImageFix"/>
<feBlend mode="normal" in="SourceGraphic" in2="BackgroundImageFix" result="shape"/>
<feColorMatrix in="SourceAlpha" type="matrix" values="0 0 0 0 0 0 0 0 0 0 0 0 0 0 0 0 0 0 127 0" result="hardAlpha"/>
<feOffset dy="0.5"/>
<feGaussianBlur stdDeviation="1.25"/>
<feComposite in2="hardAlpha" operator="arithmetic" k2="-1" k3="1"/>
<feColorMatrix type="matrix" values="0 0 0 0 0 0 0 0 0 0 0 0 0 0 0 0 0 0 0.1 0"/>
<feBlend mode="normal" in2="shape" result="effect1_innerShadow_4_142"/>
</filter>
<clipPath id="clip0_4_142">
<rect width="16.2604" height="16.2604" fill="white" transform="translate(5.69092 6.91064)"/>
</clipPath>
</defs>
</svg>
