<svg width="30" height="30" viewBox="0 0 30 30" fill="none" xmlns="http://www.w3.org/2000/svg">
<rect width="30" height="30" rx="15" fill="#444856"/>
<g clip-path="url(#clip0_4_150)" filter="url(#filter0_i_4_150)">
<path d="M6 24L7.29031 19.2023C6.24971 17.3334 5.9191 15.1525 6.35915 13.0598C6.7992 10.9672 7.98039 9.10311 9.68598 7.80974C11.3916 6.51636 13.5071 5.88041 15.6445 6.01858C17.7818 6.15675 19.7976 7.05978 21.3219 8.56195C22.8461 10.0641 23.7767 12.0647 23.9427 14.1965C24.1087 16.3284 23.4992 18.4485 22.2258 20.1678C20.9525 21.8872 19.1008 23.0905 17.0105 23.5568C14.9203 24.0232 12.7316 23.7214 10.8463 22.7068L6 24ZM11.08 20.9114L11.3797 21.0889C12.7453 21.897 14.3403 22.2314 15.9161 22.04C17.492 21.8486 18.9601 21.1422 20.0918 20.0308C21.2235 18.9194 21.9552 17.4655 22.1728 15.8956C22.3903 14.3257 22.0817 12.7281 21.2948 11.3516C20.5079 9.97521 19.2871 8.8973 17.8225 8.28588C16.3579 7.67447 14.7319 7.5639 13.1978 7.9714C11.6637 8.37891 10.3078 9.2816 9.34122 10.5388C8.37467 11.796 7.85183 13.3371 7.85419 14.9219C7.8529 16.236 8.21693 17.5247 8.90574 18.6444L9.0937 18.9538L8.37235 21.6316L11.08 20.9114Z" fill="white"/>
<path fill-rule="evenodd" clip-rule="evenodd" d="M18.3542 16.1539C18.1785 16.0124 17.9728 15.9128 17.7527 15.8627C17.5326 15.8126 17.304 15.8133 17.0842 15.8648C16.754 16.0017 16.5407 16.519 16.3273 16.7777C16.2823 16.8397 16.2162 16.8831 16.1414 16.9C16.0666 16.9168 15.9882 16.9057 15.9209 16.8689C14.712 16.3963 13.6988 15.5294 13.0456 14.4092C12.9899 14.3393 12.9636 14.2506 12.9721 14.1617C12.9806 14.0727 13.0234 13.9906 13.0914 13.9325C13.3293 13.6973 13.504 13.406 13.5994 13.0856C13.6205 12.7321 13.5394 12.38 13.3657 12.0713C13.2314 11.6384 12.9758 11.253 12.6291 10.9606C12.4503 10.8803 12.252 10.8534 12.0582 10.8831C11.8644 10.9128 11.6834 10.9978 11.5369 11.128C11.2826 11.347 11.0808 11.6201 10.9463 11.9273C10.8118 12.2345 10.748 12.5679 10.7597 12.903C10.7604 13.0912 10.7843 13.2785 10.8308 13.4609C10.9487 13.899 11.1301 14.3176 11.3692 14.7034C11.5418 14.9989 11.73 15.285 11.9331 15.5605C12.5933 16.4652 13.4231 17.2334 14.3766 17.8224C14.855 18.1217 15.3664 18.365 15.9006 18.5476C16.4555 18.7987 17.0681 18.8951 17.6735 18.8266C18.0184 18.7744 18.3452 18.6385 18.6251 18.4307C18.905 18.2228 19.1295 17.9495 19.2788 17.6348C19.3665 17.4446 19.3931 17.232 19.355 17.0262C19.2635 16.6052 18.6996 16.3567 18.3542 16.1539Z" fill="white"/>
</g>
<defs>
<filter id="filter0_i_4_150" x="6" y="6" width="18" height="18.5" filterUnits="userSpaceOnUse" color-interpolation-filters="sRGB">
<feFlood flood-opacity="0" result="BackgroundImageFix"/>
<feBlend mode="normal" in="SourceGraphic" in2="BackgroundImageFix" result="shape"/>
<feColorMatrix in="SourceAlpha" type="matrix" values="0 0 0 0 0 0 0 0 0 0 0 0 0 0 0 0 0 0 127 0" result="hardAlpha"/>
<feOffset dy="0.5"/>
<feGaussianBlur stdDeviation="1.25"/>
<feComposite in2="hardAlpha" operator="arithmetic" k2="-1" k3="1"/>
<feColorMatrix type="matrix" values="0 0 0 0 0 0 0 0 0 0 0 0 0 0 0 0 0 0 0.1 0"/>
<feBlend mode="normal" in2="shape" result="effect1_innerShadow_4_150"/>
</filter>
<clipPath id="clip0_4_150">
<rect width="18" height="18" fill="white" transform="translate(6 6)"/>
</clipPath>
</defs>
</svg>
