<svg width="30" height="30" viewBox="0 0 30 30" fill="none" xmlns="http://www.w3.org/2000/svg">
<path d="M0 15C0 6.71573 6.71573 0 15 0V0C23.2843 0 30 6.71573 30 15V15C30 23.2843 23.2843 30 15 30V30C6.71573 30 0 23.2843 0 15V15Z" fill="#444856"/>
<g clip-path="url(#clip0_4_146)" filter="url(#filter0_i_4_146)">
<path fill-rule="evenodd" clip-rule="evenodd" d="M22.7979 11.5892C22.9109 11.2356 22.7979 10.9758 22.2599 10.9758H20.481C20.0287 10.9758 19.8202 11.2003 19.7071 11.4478C19.7071 11.4478 18.8025 13.5162 17.521 14.8598C17.1064 15.2487 16.9179 15.3725 16.6917 15.3725C16.5787 15.3725 16.415 15.2487 16.415 14.8952V11.5892C16.415 11.1649 16.2837 10.9758 15.9067 10.9758H13.1113C12.8287 10.9758 12.6587 11.1728 12.6587 11.3594C12.6587 11.7616 13.2994 11.8544 13.3655 12.9858V15.4432C13.3655 15.982 13.2618 16.0797 13.0356 16.0797C12.4325 16.0797 10.9656 14.002 10.0956 11.6246C9.92509 11.1625 9.75408 10.9758 9.29944 10.9758H7.52055C7.0123 10.9758 6.91064 11.2003 6.91064 11.4478C6.91064 11.8898 7.51373 14.0819 9.7187 16.9813C11.1887 18.9613 13.2598 20.0346 15.1444 20.0346C16.2751 20.0346 16.415 19.7962 16.415 19.3856V17.8891C16.415 17.4123 16.5221 17.3172 16.8802 17.3172C17.144 17.3172 17.5963 17.4409 18.6517 18.3956C19.8579 19.527 20.0567 20.0346 20.7352 20.0346H22.514C23.0223 20.0346 23.2764 19.7962 23.1298 19.3257C22.9694 18.8569 22.3935 18.1766 21.6294 17.3702C21.2148 16.9105 20.5929 16.4156 20.4044 16.168C20.1406 15.8498 20.2159 15.7084 20.4044 15.4255C20.4044 15.4255 22.5717 12.5615 22.7979 11.5892Z" fill="white"/>
</g>
<defs>
<filter id="filter0_i_4_146" x="5.69092" y="5.69116" width="18.293" height="18.793" filterUnits="userSpaceOnUse" color-interpolation-filters="sRGB">
<feFlood flood-opacity="0" result="BackgroundImageFix"/>
<feBlend mode="normal" in="SourceGraphic" in2="BackgroundImageFix" result="shape"/>
<feColorMatrix in="SourceAlpha" type="matrix" values="0 0 0 0 0 0 0 0 0 0 0 0 0 0 0 0 0 0 127 0" result="hardAlpha"/>
<feOffset dy="0.5"/>
<feGaussianBlur stdDeviation="1.25"/>
<feComposite in2="hardAlpha" operator="arithmetic" k2="-1" k3="1"/>
<feColorMatrix type="matrix" values="0 0 0 0 0 0 0 0 0 0 0 0 0 0 0 0 0 0 0.1 0"/>
<feBlend mode="normal" in2="shape" result="effect1_innerShadow_4_146"/>
</filter>
<clipPath id="clip0_4_146">
<rect width="18.2929" height="18.2929" fill="white" transform="translate(5.69092 5.69116)"/>
</clipPath>
</defs>
</svg>
