<svg width="28" height="28" viewBox="0 0 28 28" fill="none" xmlns="http://www.w3.org/2000/svg">
<g filter="url(#filter0_i_4_262)">
<path fill-rule="evenodd" clip-rule="evenodd" d="M25.6966 9.38372C25.8661 8.85335 25.6966 8.46362 24.8896 8.46362H22.2213C21.5428 8.46362 21.2301 8.80029 21.0604 9.17153C21.0604 9.17153 19.7035 12.2742 17.7812 14.2896C17.1593 14.8729 16.8766 15.0586 16.5373 15.0586C16.3677 15.0586 16.1222 14.8729 16.1222 14.3426V9.38372C16.1222 8.74727 15.9253 8.46362 15.3599 8.46362H11.1668C10.7428 8.46362 10.4878 8.75901 10.4878 9.03897C10.4878 9.64231 11.4489 9.78145 11.548 11.4786V15.1647C11.548 15.9728 11.3924 16.1194 11.0532 16.1194C10.1486 16.1194 7.94818 13.0028 6.64315 9.43674C6.38739 8.74361 6.13087 8.46362 5.44892 8.46362H2.78059C2.01821 8.46362 1.86572 8.80029 1.86572 9.17153C1.86572 9.8345 2.77035 13.1228 6.0778 17.4718C8.28276 20.4418 11.3894 22.0517 14.2163 22.0517C15.9124 22.0517 16.1223 21.6941 16.1223 21.0782V18.8335C16.1223 18.1183 16.2829 17.9756 16.8201 17.9756C17.2158 17.9756 17.8943 18.1612 19.4774 19.5932C21.2866 21.2904 21.5848 22.0517 22.6025 22.0517H25.2708C26.0332 22.0517 26.4144 21.6941 26.1945 20.9885C25.9539 20.2852 25.0901 19.2648 23.9439 18.0551C23.3219 17.3657 22.3891 16.6232 22.1063 16.2519C21.7106 15.7746 21.8237 15.5624 22.1063 15.1382C22.1063 15.1382 25.3573 10.8422 25.6966 9.38372Z" fill="white"/>
</g>
<defs>
<filter id="filter0_i_4_262" x="0.0366211" y="0.536743" width="27.4395" height="27.9393" filterUnits="userSpaceOnUse" color-interpolation-filters="sRGB">
<feFlood flood-opacity="0" result="BackgroundImageFix"/>
<feBlend mode="normal" in="SourceGraphic" in2="BackgroundImageFix" result="shape"/>
<feColorMatrix in="SourceAlpha" type="matrix" values="0 0 0 0 0 0 0 0 0 0 0 0 0 0 0 0 0 0 127 0" result="hardAlpha"/>
<feOffset dy="0.5"/>
<feGaussianBlur stdDeviation="1.25"/>
<feComposite in2="hardAlpha" operator="arithmetic" k2="-1" k3="1"/>
<feColorMatrix type="matrix" values="0 0 0 0 0 0 0 0 0 0 0 0 0 0 0 0 0 0 0.1 0"/>
<feBlend mode="normal" in2="shape" result="effect1_innerShadow_4_262"/>
</filter>
</defs>
</svg>
