<svg width="21" height="21" viewBox="0 0 21 21" fill="none" xmlns="http://www.w3.org/2000/svg">
<path d="M8.31503 3.72507L7.38655 4.09646L7.38655 4.09646L8.31503 3.72507ZM9.23751 6.03127L10.166 5.65988L10.166 5.65988L9.23751 6.03127ZM8.95706 7.80153L9.72528 8.44171L9.72528 8.44171L8.95706 7.80153ZM8.46059 8.39729L9.22882 9.03747L9.22882 9.03747L8.46059 8.39729ZM8.56755 10.755L7.86044 11.4622L7.86044 11.4622L8.56755 10.755ZM10.245 12.4325L10.9521 11.7253L10.9521 11.7253L10.245 12.4325ZM12.6027 12.5394L11.9625 11.7712L11.9625 11.7712L12.6027 12.5394ZM13.1985 12.0429L13.8387 12.8112L13.8387 12.8112L13.1985 12.0429ZM14.9687 11.7625L14.5973 12.691L14.5973 12.691L14.9687 11.7625ZM17.2749 12.685L17.6463 11.7565L17.6463 11.7565L17.2749 12.685ZM4.28289 3.625H6.69019V1.625H4.28289V3.625ZM7.38655 4.09646L8.30903 6.40266L10.166 5.65988L9.2435 3.35368L7.38655 4.09646ZM8.18884 7.16134L7.69237 7.7571L9.22882 9.03747L9.72528 8.44171L8.18884 7.16134ZM7.86044 11.4622L9.53785 13.1396L10.9521 11.7253L9.27465 10.0479L7.86044 11.4622ZM13.2429 13.3076L13.8387 12.8112L12.5583 11.2747L11.9625 11.7712L13.2429 13.3076ZM14.5973 12.691L16.9035 13.6134L17.6463 11.7565L15.3401 10.834L14.5973 12.691ZM17.375 14.3098V16.7171H19.375V14.3098H17.375ZM16.7171 17.375C9.48654 17.375 3.625 11.5135 3.625 4.28289H1.625C1.625 12.618 8.38197 19.375 16.7171 19.375V17.375ZM17.375 16.7171C17.375 17.0805 17.0805 17.375 16.7171 17.375V19.375C18.185 19.375 19.375 18.185 19.375 16.7171H17.375ZM16.9035 13.6134C17.1883 13.7273 17.375 14.0031 17.375 14.3098H19.375C19.375 13.1853 18.6904 12.1741 17.6463 11.7565L16.9035 13.6134ZM13.8387 12.8112C14.0503 12.6348 14.3416 12.5887 14.5973 12.691L15.3401 10.834C14.4023 10.4589 13.3343 10.6281 12.5583 11.2747L13.8387 12.8112ZM9.53785 13.1396C10.5436 14.1453 12.1503 14.2182 13.2429 13.3076L11.9625 11.7712C11.6645 12.0195 11.2263 11.9996 10.9521 11.7253L9.53785 13.1396ZM7.69237 7.7571C6.78183 8.84975 6.85472 10.4564 7.86044 11.4622L9.27465 10.0479C9.00036 9.77365 8.98049 9.33547 9.22882 9.03747L7.69237 7.7571ZM8.30903 6.40266C8.41134 6.65844 8.3652 6.94971 8.18884 7.16134L9.72528 8.44171C10.3719 7.66574 10.5411 6.59772 10.166 5.65988L8.30903 6.40266ZM6.69019 3.625C6.99687 3.625 7.27265 3.81171 7.38655 4.09646L9.2435 3.35368C8.82588 2.30962 7.81468 1.625 6.69019 1.625V3.625ZM4.28289 1.625C2.81498 1.625 1.625 2.81498 1.625 4.28289H3.625C3.625 3.91955 3.91955 3.625 4.28289 3.625V1.625Z" fill="#3D3D3D"/>
</svg>
