<svg width="27" height="25" viewBox="0 0 27 25" fill="none" xmlns="http://www.w3.org/2000/svg">
<g filter="url(#filter0_i_4_245)">
<path d="M1.49179 11.5126C1.49179 11.5126 11.0805 7.26008 14.4061 5.76266C15.6809 5.16375 20.0042 3.24705 20.0042 3.24705C20.0042 3.24705 21.9995 2.40857 21.8332 4.44497C21.7778 5.28353 21.3344 8.21834 20.891 11.3928C20.2258 15.885 19.5053 20.7963 19.5053 20.7963C19.5053 20.7963 19.3945 22.1739 18.4522 22.4135C17.51 22.6531 15.958 21.575 15.6809 21.3354C15.4592 21.1557 11.5239 18.4604 10.0829 17.1427C9.69486 16.7834 9.25147 16.0647 10.1382 15.2261C12.1336 13.2496 14.5169 10.7939 15.958 9.23662C16.6232 8.51784 17.2882 6.8408 14.5169 8.87719C10.5817 11.8121 6.70186 14.5673 6.70186 14.5673C6.70186 14.5673 5.81502 15.1662 4.15225 14.6271C2.48941 14.0881 0.549484 13.3693 0.549484 13.3693C0.549484 13.3693 -0.780668 12.4709 1.49179 11.5126Z" fill="white"/>
</g>
<defs>
<filter id="filter0_i_4_245" x="0" y="0" width="27" height="25.5" filterUnits="userSpaceOnUse" color-interpolation-filters="sRGB">
<feFlood flood-opacity="0" result="BackgroundImageFix"/>
<feBlend mode="normal" in="SourceGraphic" in2="BackgroundImageFix" result="shape"/>
<feColorMatrix in="SourceAlpha" type="matrix" values="0 0 0 0 0 0 0 0 0 0 0 0 0 0 0 0 0 0 127 0" result="hardAlpha"/>
<feOffset dy="0.5"/>
<feGaussianBlur stdDeviation="1.25"/>
<feComposite in2="hardAlpha" operator="arithmetic" k2="-1" k3="1"/>
<feColorMatrix type="matrix" values="0 0 0 0 0 0 0 0 0 0 0 0 0 0 0 0 0 0 0.1 0"/>
<feBlend mode="normal" in2="shape" result="effect1_innerShadow_4_245"/>
</filter>
</defs>
</svg>
