<svg width="100" height="100" viewBox="0 0 100 100" fill="none" xmlns="http://www.w3.org/2000/svg">
<g filter="url(#filter0_i_120_306)">
<path fill-rule="evenodd" clip-rule="evenodd" d="M93.5157 32.2421C94.1336 30.3092 93.5157 28.8889 90.5749 28.8889H80.8504C78.3778 28.8889 77.2379 30.1158 76.6197 31.4688C76.6197 31.4688 71.6744 42.7761 64.6689 50.121C62.4024 52.2471 61.372 52.9235 60.1357 52.9235C59.5177 52.9235 58.6229 52.2471 58.6229 50.3143V32.2421C58.6229 29.9226 57.9053 28.8889 55.8446 28.8889H40.5633C39.0181 28.8889 38.0888 29.9654 38.0888 30.9857C38.0888 33.1845 41.5915 33.6916 41.9525 39.8769V53.3103C41.9525 56.2555 41.3855 56.7895 40.1492 56.7895C36.8525 56.7895 28.8334 45.4317 24.0774 32.4353C23.1453 29.9093 22.2104 28.8889 19.7251 28.8889H10.0006C7.22222 28.8889 6.6665 30.1158 6.6665 31.4688C6.6665 33.885 9.96332 45.8688 22.017 61.7182C30.0528 72.5421 41.3746 78.4094 51.677 78.4094C57.8583 78.4094 58.623 77.1063 58.623 74.8615V66.6809C58.623 64.0745 59.2086 63.5544 61.1661 63.5544C62.6083 63.5544 65.081 64.2309 70.8504 69.4496C77.4439 75.6347 78.5309 78.4094 82.2396 78.4094H91.9641C94.7425 78.4094 96.1317 77.1063 95.3303 74.5345C94.4533 71.9714 91.3053 68.2526 87.1282 63.8443C84.8615 61.3316 81.4618 58.6257 80.4315 57.2724C78.9892 55.5331 79.4013 54.7598 80.4315 53.2136C80.4315 53.2136 92.2794 37.5574 93.5157 32.2421Z" fill="white"/>
</g>
<defs>
<filter id="filter0_i_120_306" x="0" y="0" width="100" height="100.5" filterUnits="userSpaceOnUse" color-interpolation-filters="sRGB">
<feFlood flood-opacity="0" result="BackgroundImageFix"/>
<feBlend mode="normal" in="SourceGraphic" in2="BackgroundImageFix" result="shape"/>
<feColorMatrix in="SourceAlpha" type="matrix" values="0 0 0 0 0 0 0 0 0 0 0 0 0 0 0 0 0 0 127 0" result="hardAlpha"/>
<feOffset dy="0.5"/>
<feGaussianBlur stdDeviation="1.25"/>
<feComposite in2="hardAlpha" operator="arithmetic" k2="-1" k3="1"/>
<feColorMatrix type="matrix" values="0 0 0 0 0 0 0 0 0 0 0 0 0 0 0 0 0 0 0.1 0"/>
<feBlend mode="normal" in2="shape" result="effect1_innerShadow_120_306"/>
</filter>
</defs>
</svg>
