<svg width="18" height="17" viewBox="0 0 18 17" fill="none" xmlns="http://www.w3.org/2000/svg">
<path d="M7.12717 2.94074L6.20993 3.33908L6.20993 3.33908L7.12717 2.94074ZM7.91786 4.76143L8.8351 4.36308L8.8351 4.36308L7.91786 4.76143ZM7.67748 6.159L8.41902 6.82991L8.41902 6.82991L7.67748 6.159ZM7.25194 6.62933L7.99347 7.30025L7.99347 7.30025L7.25194 6.62933ZM7.34361 8.49072L6.66613 9.22627L6.66613 9.22627L7.34361 8.49072ZM8.78139 9.81499L9.45887 9.07945L9.45887 9.07945L8.78139 9.81499ZM10.8023 9.89943L10.1935 9.10616L10.1935 9.10616L10.8023 9.89943ZM11.313 9.50748L11.9218 10.3008L11.9218 10.3007L11.313 9.50748ZM12.8303 9.28608L12.4846 10.2244L12.4846 10.2244L12.8303 9.28608ZM14.8071 10.0143L15.1528 9.07601L15.1528 9.07601L14.8071 10.0143ZM3.67105 3.07227H5.73445V1.07227H3.67105V3.07227ZM6.20993 3.33908L7.00063 5.15977L8.8351 4.36308L8.0444 2.5424L6.20993 3.33908ZM6.93595 5.48808L6.5104 5.95842L7.99347 7.30025L8.41902 6.82991L6.93595 5.48808ZM6.66613 9.22627L8.10392 10.5505L9.45887 9.07945L8.02109 7.75518L6.66613 9.22627ZM11.4112 10.6927L11.9218 10.3008L10.7041 8.71421L10.1935 9.10616L11.4112 10.6927ZM12.4846 10.2244L14.4614 10.9527L15.1528 9.07601L13.176 8.34773L12.4846 10.2244ZM14.75 11.2971V13.1976H16.75V11.2971H14.75ZM14.3289 13.5065C8.1312 13.5065 3.25 8.89737 3.25 3.38113H1.25C1.25 10.1536 7.18466 15.5065 14.3289 15.5065V13.5065ZM14.75 13.1976C14.75 13.2549 14.7267 13.3227 14.6563 13.3876C14.5845 13.4537 14.4713 13.5065 14.3289 13.5065V15.5065C15.587 15.5065 16.75 14.5486 16.75 13.1976H14.75ZM14.4614 10.9527C14.6765 11.0319 14.75 11.191 14.75 11.2971H16.75C16.75 10.2734 16.0766 9.41637 15.1528 9.07601L14.4614 10.9527ZM11.9218 10.3007C12.0658 10.1903 12.2866 10.1514 12.4846 10.2244L13.176 8.34773C12.351 8.04377 11.4067 8.17493 10.7041 8.71421L11.9218 10.3007ZM8.10391 10.5505C9.01415 11.3889 10.4337 11.443 11.4112 10.6927L10.1935 9.10616C9.97896 9.27079 9.64579 9.25161 9.45887 9.07945L8.10391 10.5505ZM6.5104 5.95842C5.64089 6.91946 5.71899 8.3539 6.66613 9.22627L8.02109 7.75518C7.93753 7.67822 7.90797 7.59563 7.9046 7.52721C7.90125 7.45917 7.92231 7.37891 7.99347 7.30025L6.5104 5.95842ZM7.00063 5.15977C7.04421 5.26012 7.03332 5.38046 6.93595 5.48808L8.41902 6.82991C9.02707 6.15785 9.20076 5.20507 8.8351 4.36308L7.00063 5.15977ZM5.73445 3.07227C5.98678 3.07227 6.15511 3.21287 6.20993 3.33908L8.0444 2.5424C7.64363 1.61956 6.70883 1.07227 5.73445 1.07227V3.07227ZM3.67105 1.07227C2.41296 1.07227 1.25 2.03014 1.25 3.38113H3.25C3.25 3.32381 3.27326 3.25604 3.34369 3.19117C3.41551 3.12502 3.52868 3.07227 3.67105 3.07227V1.07227Z" fill="white"/>
</svg>
