<svg width="22" height="22" viewBox="0 0 22 22" fill="none" xmlns="http://www.w3.org/2000/svg">
<path d="M8.71098 3.90245L8.24674 4.08815L8.71098 3.90245ZM9.67739 6.31847L10.1416 6.13278V6.13278L9.67739 6.31847ZM9.38359 8.17303L9.7677 8.49312L9.38359 8.17303ZM8.86348 8.79716L9.24759 9.11725L8.86348 8.79716ZM8.97552 11.2672L8.62197 11.6207L8.97552 11.2672ZM10.7328 13.0245L11.0864 12.6709L10.7328 13.0245ZM13.2028 13.1365L12.8828 12.7524L13.2028 13.1365ZM13.827 12.6164L14.1471 13.0005L13.827 12.6164ZM15.6815 12.3226L15.4958 12.7868L15.6815 12.3226ZM18.0975 13.289L18.2832 12.8248H18.2832L18.0975 13.289ZM4.48684 3.25H7.00877V2.25H4.48684V3.25ZM8.24674 4.08815L9.21315 6.50417L10.1416 6.13278L9.17522 3.71676L8.24674 4.08815ZM8.99948 7.85294L8.47937 8.47707L9.24759 9.11725L9.7677 8.49312L8.99948 7.85294ZM8.62197 11.6207L10.3793 13.378L11.0864 12.6709L9.32908 10.9136L8.62197 11.6207ZM13.5229 13.5206L14.1471 13.0005L13.5069 12.2323L12.8828 12.7524L13.5229 13.5206ZM15.4958 12.7868L17.9119 13.7533L18.2832 12.8248L15.8672 11.8584L15.4958 12.7868ZM18.75 14.9912V17.5132H19.75V14.9912H18.75ZM17.5132 18.75C9.63583 18.75 3.25 12.3642 3.25 4.48684H2.25C2.25 12.9165 9.08355 19.75 17.5132 19.75V18.75ZM18.75 17.5132C18.75 18.1962 18.1962 18.75 17.5132 18.75V19.75C18.7485 19.75 19.75 18.7485 19.75 17.5132H18.75ZM17.9119 13.7533C18.4181 13.9557 18.75 14.446 18.75 14.9912H19.75C19.75 14.0371 19.1691 13.1791 18.2832 12.8248L17.9119 13.7533ZM14.1471 13.0005C14.5233 12.687 15.0411 12.605 15.4958 12.7868L15.8672 11.8584C15.0715 11.5401 14.1653 11.6836 13.5069 12.2323L14.1471 13.0005ZM10.3793 13.378C11.2326 14.2314 12.5958 14.2932 13.5229 13.5206L12.8828 12.7524C12.353 13.1939 11.574 13.1585 11.0864 12.6709L10.3793 13.378ZM8.47937 8.47707C7.70679 9.40416 7.76863 10.7674 8.62197 11.6207L9.32908 10.9136C8.84145 10.426 8.80612 9.64702 9.24759 9.11725L8.47937 8.47707ZM9.21315 6.50417C9.39504 6.95888 9.313 7.47671 8.99948 7.85294L9.7677 8.49312C10.3164 7.83472 10.4599 6.92852 10.1416 6.13278L9.21315 6.50417ZM7.00877 3.25C7.55398 3.25 8.04426 3.58193 8.24674 4.08815L9.17522 3.71676C8.82087 2.83089 7.96288 2.25 7.00877 2.25V3.25ZM4.48684 2.25C3.25147 2.25 2.25 3.25147 2.25 4.48684H3.25C3.25 3.80375 3.80375 3.25 4.48684 3.25V2.25Z" fill="white"/>
</svg>
