<svg width="20" height="20" viewBox="0 0 20 20" fill="none" xmlns="http://www.w3.org/2000/svg">
<path d="M10.0002 9.16659C10.9206 9.16659 11.6668 8.42039 11.6668 7.49992C11.6668 6.57944 10.9206 5.83325 10.0002 5.83325C9.07969 5.83325 8.3335 6.57944 8.3335 7.49992C8.3335 8.42039 9.07969 9.16659 10.0002 9.16659Z" stroke="white" stroke-linecap="round" stroke-linejoin="round"/>
<path d="M9.99984 17.5C9.99984 17.5 15.8332 13.4615 15.8332 8.26923C15.8332 6.73914 15.2186 5.27171 14.1246 4.18977C13.0307 3.10783 11.5469 2.5 9.99984 2.5C8.45274 2.5 6.96901 3.10783 5.87505 4.18977C4.78109 5.27171 4.1665 6.73914 4.1665 8.26923C4.1665 13.4615 9.99984 17.5 9.99984 17.5Z" stroke="white" stroke-linecap="round" stroke-linejoin="round"/>
</svg>
