<svg width="14" height="7" viewBox="0 0 14 7" fill="none" xmlns="http://www.w3.org/2000/svg">
<path d="M13.1867 0.853553C13.382 0.658291 13.382 0.341709 13.1867 0.146447C12.9915 -0.0488156 12.6749 -0.0488155 12.4796 0.146447L13.1867 0.853553ZM6.99984 6.33333L6.64628 6.68689C6.74005 6.78066 6.86723 6.83333 6.99984 6.83333C7.13245 6.83333 7.25962 6.78066 7.35339 6.68689L6.99984 6.33333ZM1.52006 0.146447C1.3248 -0.0488155 1.00821 -0.0488155 0.812951 0.146447C0.617688 0.341709 0.617688 0.658291 0.812951 0.853553L1.52006 0.146447ZM12.4796 0.146447L6.64628 5.97978L7.35339 6.68689L13.1867 0.853553L12.4796 0.146447ZM7.35339 5.97978L1.52006 0.146447L0.812951 0.853553L6.64628 6.68689L7.35339 5.97978Z" fill="#3D3D3D" fill-opacity="0.4"/>
</svg>
