<svg width="12" height="12" viewBox="0 0 12 12" fill="none" xmlns="http://www.w3.org/2000/svg">
<path d="M9.85355 4.85355C10.0488 4.65829 10.0488 4.34171 9.85355 4.14645C9.65829 3.95118 9.34171 3.95118 9.14645 4.14645L9.85355 4.85355ZM6 8L5.64645 8.35355C5.74022 8.44732 5.86739 8.5 6 8.5C6.13261 8.5 6.25979 8.44732 6.35355 8.35355L6 8ZM2.85355 4.14645C2.65829 3.95118 2.34171 3.95118 2.14645 4.14645C1.95118 4.34171 1.95118 4.65829 2.14645 4.85355L2.85355 4.14645ZM9.14645 4.14645L5.64645 7.64645L6.35355 8.35355L9.85355 4.85355L9.14645 4.14645ZM6.35355 7.64645L2.85355 4.14645L2.14645 4.85355L5.64645 8.35355L6.35355 7.64645Z" fill="white"/>
</svg>
